<svg width="329" height="193" viewBox="0 0 329 193" fill="none" xmlns="http://www.w3.org/2000/svg">
<path d="M34.217 45.118C35.54 45.118 37.871 45.307 39.572 46.126V27.415H42.659V26.407H23.444V27.415H27.098V44.992C26.153 45.181 25.145 45.244 24.2 45.244C17.081 45.244 14.876 37.369 14.876 23.572C14.876 8.263 17.522 1.9 23.948 1.9C31.319 1.9 34.091 12.043 35.981 18.595H36.8V0.702997H35.981C35.981 0.702997 35.351 2.908 33.083 2.908C29.681 2.908 28.484 0.702997 22.499 0.702997C7.442 0.702997 0.89 13.051 0.89 23.509C0.89 28.927 1.961 33.652 4.166 37.432C7.568 43.165 13.364 46.63 22.814 46.63C27.98 46.63 30.374 45.118 34.217 45.118ZM60.9221 20.359V15.256C56.7011 16.138 52.6691 16.453 48.3221 16.453H44.5421V17.461H49.0151V44.425H45.1091V45.433H65.3951V44.425H60.6701V31.888C60.6701 21.934 63.1271 16.39 68.4191 16.39C70.7501 16.39 72.1361 17.65 72.7031 18.406C72.9551 18.784 73.0811 19.036 73.0811 19.351C73.0811 19.729 72.8291 19.918 72.5141 19.918C72.0731 19.918 71.8841 19.414 71.5061 18.973C71.1281 18.532 70.1831 17.713 68.7341 17.713C66.2771 17.713 64.5761 19.666 64.5761 22.186C64.5761 25.021 66.7811 26.911 69.4901 26.911C72.8921 26.911 74.8451 24.265 74.8451 21.241C74.8451 17.965 72.1361 15.256 68.3561 15.256C64.9541 15.256 62.4971 17.461 61.2371 20.359H60.9221ZM95.1665 35.92C95.1665 39.07 94.0325 43.48 91.2605 43.48C89.3705 43.48 87.7325 41.59 87.7325 37.054C87.7325 31.636 91.1975 29.872 95.1665 30.061V35.92ZM96.3635 39.448C96.6785 43.102 99.1985 46.63 103.672 46.63C109.468 46.63 111.736 42.535 112.429 36.865L111.295 36.739C110.917 40.204 109.846 43.039 108.208 43.039C107.326 43.039 107.074 41.905 107.074 40.456V29.746C107.074 19.855 103.924 15.256 90.3155 15.256C82.5035 15.256 77.7785 18.28 77.7785 23.131C77.7785 25.966 79.9205 28.423 83.3855 28.423C85.7795 28.423 88.1735 26.47 88.1735 23.635C88.1735 21.367 86.6615 19.099 84.1415 19.099C81.4955 19.099 80.6765 21.367 80.6765 21.367C80.4875 21.745 80.4245 22.312 79.8575 22.312C79.6055 22.312 79.2905 22.123 79.2905 21.745C79.2905 19.162 83.5115 16.516 88.3625 16.516C95.0405 16.516 95.1665 22.249 95.1665 26.848V28.927C89.3705 28.927 75.8255 29.494 75.8255 38.314C75.8255 44.614 81.1805 46.63 86.4095 46.63C92.9615 46.63 94.9775 43.354 95.9855 39.448H96.3635ZM129.093 46.63C137.661 46.63 142.89 35.794 142.89 26.47C142.89 18.784 139.299 15.256 135.267 15.256C131.991 15.256 129.597 17.335 129.597 20.611C129.597 23.446 131.676 25.588 134.385 25.588C136.968 25.588 138.921 23.887 138.921 21.367C138.921 19.477 137.913 18.28 136.401 17.776C135.96 17.65 135.582 17.524 135.582 17.083C135.582 16.705 135.897 16.516 136.212 16.516C136.464 16.516 136.653 16.579 136.905 16.642C139.803 17.461 141.693 21.241 141.693 26.029C141.693 32.833 138.543 41.464 134.196 41.464C129.723 41.464 126.699 33.463 126.699 18.028V15.256C122.478 16.138 118.131 16.453 113.784 16.453H110.004V17.461H114.477V20.926C114.477 34.471 118.257 46.63 129.093 46.63ZM149.366 17.461V44.425H145.46V45.433H165.179V44.425H161.273V15.256C157.052 16.138 153.02 16.453 148.673 16.453H144.893V17.461H149.366ZM149.366 6.688C149.366 9.964 152.012 12.61 155.288 12.61C158.69 12.61 161.273 9.964 161.273 6.688C161.273 3.286 158.69 0.702997 155.288 0.702997C152.012 0.702997 149.366 3.286 149.366 6.688ZM178.327 46.63C184.753 46.63 186.895 42.535 187.588 36.865L186.454 36.739C186.076 40.204 185.005 43.039 183.367 43.039C182.485 43.039 182.233 41.905 182.233 40.456V17.461H188.092V16.453H182.233V5.617H181.414C179.524 13.933 170.641 16.453 167.491 16.453H167.05V17.461H170.326V37.432C170.326 43.921 173.728 46.63 178.327 46.63ZM213.302 15.256C210.278 15.256 207.884 17.398 207.884 20.611C207.884 23.257 209.9 25.462 212.609 25.462C215.066 25.462 217.082 23.761 217.082 21.052C217.082 19.666 216.263 18.469 214.94 17.839C214.499 17.65 214.373 17.524 214.373 17.209C214.373 16.894 214.625 16.642 214.94 16.642C215.57 16.642 216.641 17.335 217.019 17.713C218.783 19.225 219.539 21.682 219.539 24.454C219.539 27.541 219.035 30.313 218.09 32.455C216.326 36.361 214.373 38.629 211.79 38.629C209.27 38.629 204.797 33.841 204.797 20.611C204.797 18.154 204.923 15.256 204.923 15.256C200.702 16.138 196.166 16.453 191.819 16.453H188.039V17.461H192.575V18.469C192.575 32.14 194.654 40.771 205.679 44.362C202.907 46.567 200.324 49.087 200.324 53.245C200.324 57.592 203.411 60.238 207.065 60.238C210.089 60.238 212.546 58.222 212.546 54.757C212.546 51.796 210.215 49.843 207.569 49.843C204.923 49.843 203.285 51.985 203.285 54.064C203.285 55.324 203.978 56.773 205.238 57.592C205.553 57.781 205.742 57.907 205.742 58.222C205.742 58.474 205.553 58.789 205.175 58.789C204.986 58.789 204.671 58.663 204.482 58.537C203.033 57.718 201.458 56.332 201.458 53.119C201.458 46.819 209.774 43.48 214.247 39.637C218.657 35.857 220.673 30.565 220.673 24.643C220.673 19.603 218.405 15.256 213.302 15.256ZM5.552 75.908V117.425H0.89V118.433H22.436V117.425H18.404V96.446H29.429V117.425H25.397V118.433H46.943V117.425H42.281V75.908H46.943V74.9H25.397V75.908H29.429V95.438H18.404V75.908H22.436V74.9H0.89V75.908H5.552ZM67.2329 119.63C77.1239 119.63 83.8649 113.33 83.8649 103.943C83.8649 94.556 77.1239 88.256 67.2329 88.256C57.3419 88.256 50.6009 94.556 50.6009 103.943C50.6009 113.33 57.3419 119.63 67.2329 119.63ZM71.1389 103.943C71.1389 114.779 70.1939 118.496 67.2329 118.496C64.2719 118.496 63.3269 114.779 63.3269 103.943C63.3269 93.107 64.2719 89.39 67.2329 89.39C70.1939 89.39 71.1389 93.107 71.1389 103.943ZM121.343 117.425V88.256C117.122 89.138 113.342 89.453 108.995 89.453H105.215V90.524H109.688V101.864C109.688 108.29 108.428 116.039 105.215 116.039C102.38 116.039 102.128 111.44 102.128 104.069V88.256C97.907 89.138 94.127 89.453 89.78 89.453H86V90.461H90.473V106.715C90.473 114.338 92.678 119.693 100.301 119.693C104.711 119.693 107.483 117.614 109.121 113.519H109.436V118.433H125.249V117.425H121.343ZM145.706 89.579C151.187 89.579 153.581 92.036 153.581 92.981C153.581 93.359 153.266 93.548 153.014 93.548C152.636 93.548 152.384 93.233 152.069 92.855C151.628 92.351 150.935 91.721 149.423 91.721C146.966 91.721 145.328 93.674 145.328 96.068C145.328 98.966 147.533 100.856 150.116 100.856C153.581 100.856 155.471 98.21 155.471 95.312C155.471 91.406 152.006 88.319 143.879 88.319C132.791 88.319 128.696 92.666 128.696 97.454C128.696 106.085 146.525 108.164 146.525 114.464C146.525 117.362 142.934 118.433 139.595 118.433C133.295 118.433 130.208 115.85 130.208 114.842C130.208 114.527 130.46 114.275 130.712 114.275C131.216 114.275 131.342 114.653 131.783 115.094C132.287 115.598 132.917 116.102 134.24 116.102C136.76 116.102 138.461 114.275 138.461 111.755C138.461 108.857 136.256 107.03 133.673 107.03C130.145 107.03 128.255 109.676 128.255 112.574C128.255 118.433 135.941 119.63 140.225 119.63C151.628 119.63 156.731 115.913 156.731 110.81C156.731 101.297 139.028 100.604 139.028 94.304C139.028 91.154 141.8 89.579 145.706 89.579ZM179.949 118.118C174.531 118.118 173.271 113.456 173.271 106.463H177.429C184.737 106.463 191.289 104.447 191.289 97.832C191.289 90.65 184.107 88.256 176.862 88.256C166.845 88.256 160.482 94.115 160.482 103.943C160.482 114.338 167.034 119.63 178.059 119.63C185.556 119.63 190.218 115.409 191.415 108.668L190.281 108.479L190.155 109.046C189.021 114.59 184.926 118.118 179.949 118.118ZM173.208 100.793C173.208 91.028 174.531 89.39 176.862 89.39C178.563 89.39 179.823 91.091 179.823 97.769C179.823 102.368 178.752 105.329 174.783 105.329H173.208V100.793ZM209.315 115.157C210.764 118.118 213.347 119.63 217.253 119.63C225.695 119.63 229.538 112.385 229.538 103.943C229.538 95.501 226.577 88.256 218.135 88.256C213.725 88.256 210.953 89.705 209.315 93.8H209V73.703C204.779 74.585 200.747 74.9 196.4 74.9H192.62V75.908H197.093V117.425H193.187V118.433H209V115.157H209.315ZM208.748 103.943C208.748 98.21 210.26 91.091 213.536 91.091C216.371 91.091 216.812 95.942 216.812 103.943C216.812 112.007 215.993 117.299 213.536 117.299C211.205 117.299 208.748 113.519 208.748 105.644V103.943ZM249.958 119.63C259.849 119.63 266.59 113.33 266.59 103.943C266.59 94.556 259.849 88.256 249.958 88.256C240.067 88.256 233.326 94.556 233.326 103.943C233.326 113.33 240.067 119.63 249.958 119.63ZM253.864 103.943C253.864 114.779 252.919 118.496 249.958 118.496C246.997 118.496 246.052 114.779 246.052 103.943C246.052 93.107 246.997 89.39 249.958 89.39C252.919 89.39 253.864 93.107 253.864 103.943ZM289.704 108.92C289.704 112.07 288.57 116.48 285.798 116.48C283.908 116.48 282.27 114.59 282.27 110.054C282.27 104.636 285.735 102.872 289.704 103.061V108.92ZM290.901 112.448C291.216 116.102 293.736 119.63 298.209 119.63C304.005 119.63 306.273 115.535 306.966 109.865L305.832 109.739C305.454 113.204 304.383 116.039 302.745 116.039C301.863 116.039 301.611 114.905 301.611 113.456V102.746C301.611 92.855 298.461 88.256 284.853 88.256C277.041 88.256 272.316 91.28 272.316 96.131C272.316 98.966 274.458 101.423 277.923 101.423C280.317 101.423 282.711 99.47 282.711 96.635C282.711 94.367 281.199 92.099 278.679 92.099C276.033 92.099 275.214 94.367 275.214 94.367C275.025 94.745 274.962 95.312 274.395 95.312C274.143 95.312 273.828 95.123 273.828 94.745C273.828 92.162 278.049 89.516 282.9 89.516C289.578 89.516 289.704 95.249 289.704 99.848V101.927C283.908 101.927 270.363 102.494 270.363 111.314C270.363 117.614 275.718 119.63 280.947 119.63C287.499 119.63 289.515 116.354 290.523 112.448H290.901ZM319.031 119.63C325.457 119.63 327.599 115.535 328.292 109.865L327.158 109.739C326.78 113.204 325.709 116.039 324.071 116.039C323.189 116.039 322.937 114.905 322.937 113.456V90.461H328.796V89.453H322.937V78.617H322.118C320.228 86.933 311.345 89.453 308.195 89.453H307.754V90.461H311.03V110.432C311.03 116.921 314.432 119.63 319.031 119.63ZM14.876 170.013C14.876 154.389 17.459 147.9 23.948 147.9C31.319 147.9 34.091 158.043 35.981 164.595H36.8V146.703H35.981C35.981 146.703 35.351 148.908 33.083 148.908C29.681 148.908 28.484 146.703 22.499 146.703C7.442 146.703 0.89 159.051 0.89 169.509C0.89 183.054 7.757 192.63 22.814 192.63C30.5 192.63 37.493 186.897 38.123 176.502H36.8C36.8 182.046 32.264 191.181 23.948 191.181C17.27 191.181 14.876 183.306 14.876 170.013ZM57.0461 166.359V161.256C52.8251 162.138 48.7931 162.453 44.4461 162.453H40.6661V163.461H45.1391V190.425H41.2331V191.433H61.5191V190.425H56.7941V177.888C56.7941 167.934 59.2511 162.39 64.5431 162.39C66.8741 162.39 68.2601 163.65 68.8271 164.406C69.0791 164.784 69.2051 165.036 69.2051 165.351C69.2051 165.729 68.9531 165.918 68.6381 165.918C68.1971 165.918 68.0081 165.414 67.6301 164.973C67.2521 164.532 66.3071 163.713 64.8581 163.713C62.4011 163.713 60.7001 165.666 60.7001 168.186C60.7001 171.021 62.9051 172.911 65.6141 172.911C69.0161 172.911 70.9691 170.265 70.9691 167.241C70.9691 163.965 68.2601 161.256 64.4801 161.256C61.0781 161.256 58.6211 163.461 57.3611 166.359H57.0461ZM105.655 190.425V161.256C101.434 162.138 97.6536 162.453 93.3066 162.453H89.5266V163.524H93.9996V174.864C93.9996 181.29 92.7396 189.039 89.5266 189.039C86.6916 189.039 86.4396 184.44 86.4396 177.069V161.256C82.2186 162.138 78.4386 162.453 74.0916 162.453H70.3116V163.461H74.7846V179.715C74.7846 187.338 76.9896 192.693 84.6126 192.693C89.0226 192.693 91.7946 190.614 93.4326 186.519H93.7476V191.433H109.561V190.425H105.655ZM115.528 163.461V190.425H111.622V191.433H131.341V190.425H127.435V161.256C123.214 162.138 119.182 162.453 114.835 162.453H111.055V163.461H115.528ZM115.528 152.688C115.528 155.964 118.174 158.61 121.45 158.61C124.852 158.61 127.435 155.964 127.435 152.688C127.435 149.286 124.852 146.703 121.45 146.703C118.174 146.703 115.528 149.286 115.528 152.688ZM151.797 162.579C157.278 162.579 159.672 165.036 159.672 165.981C159.672 166.359 159.357 166.548 159.105 166.548C158.727 166.548 158.475 166.233 158.16 165.855C157.719 165.351 157.026 164.721 155.514 164.721C153.057 164.721 151.419 166.674 151.419 169.068C151.419 171.966 153.624 173.856 156.207 173.856C159.672 173.856 161.562 171.21 161.562 168.312C161.562 164.406 158.097 161.319 149.97 161.319C138.882 161.319 134.787 165.666 134.787 170.454C134.787 179.085 152.616 181.164 152.616 187.464C152.616 190.362 149.025 191.433 145.686 191.433C139.386 191.433 136.299 188.85 136.299 187.842C136.299 187.527 136.551 187.275 136.803 187.275C137.307 187.275 137.433 187.653 137.874 188.094C138.378 188.598 139.008 189.102 140.331 189.102C142.851 189.102 144.552 187.275 144.552 184.755C144.552 181.857 142.347 180.03 139.764 180.03C136.236 180.03 134.346 182.676 134.346 185.574C134.346 191.433 142.032 192.63 146.316 192.63C157.719 192.63 162.822 188.913 162.822 183.81C162.822 174.297 145.119 173.604 145.119 167.304C145.119 164.154 147.891 162.579 151.797 162.579ZM186.04 191.118C180.622 191.118 179.362 186.456 179.362 179.463H183.52C190.828 179.463 197.38 177.447 197.38 170.832C197.38 163.65 190.198 161.256 182.953 161.256C172.936 161.256 166.573 167.115 166.573 176.943C166.573 187.338 173.125 192.63 184.15 192.63C191.647 192.63 196.309 188.409 197.506 181.668L196.372 181.479L196.246 182.046C195.112 187.59 191.017 191.118 186.04 191.118ZM179.299 173.793C179.299 164.028 180.622 162.39 182.953 162.39C184.654 162.39 185.914 164.091 185.914 170.769C185.914 175.368 184.843 178.329 180.874 178.329H179.299V173.793Z" fill="#3C679D"/>
</svg>
