<svg id="Layer_2" data-name="Layer 2" xmlns="http://www.w3.org/2000/svg" viewBox="0 0 268.08 208.95"><defs><style>.cls-1{fill:#57bfcc;}.cls-2{fill:#3c679d;}.cls-3,.cls-5{fill:none;stroke:#231f20;stroke-miterlimit:10;}.cls-4{fill:#ed1c24;}.cls-5{stroke-width:0.05px;}</style></defs><path class="cls-1" d="M350.54,317.28a89.57,89.57,0,0,0-45-12c-47.43,0-85.87,36.09-85.87,80.6a77,77,0,0,0,15.94,46.8c-8.74,1.81-24.62-5.83-24.58-7.11h0a93.42,93.42,0,0,1-7.07-35.78c0-50.94,40.57-92.24,90.63-92.24A89.25,89.25,0,0,1,350.54,317.28Z" transform="translate(-161.69 -253.28)"/><path class="cls-2" d="M387.07,383.85c.76,12.38-.46,23-5.54,35.1l-11.76-6.82A77.48,77.48,0,0,0,241.4,337.81a81.89,81.89,0,0,1,145.67,46Z" transform="translate(-161.69 -253.28)"/><path class="cls-3" d="M225.13,387.14" transform="translate(-161.69 -253.28)"/><line class="cls-3" x1="217.22" y1="168.06" x2="217.21" y2="168.06"/><path class="cls-3" d="M356.39,456.78" transform="translate(-161.69 -253.28)"/><path class="cls-2" d="M237.27,412.6" transform="translate(-161.69 -253.28)"/><path class="cls-2" d="M354.29,419.67c.85-.16,9.51-1.45,10.29-1.84a7.58,7.58,0,0,0,2.47-1.6,24.12,24.12,0,0,0,2.06-3.6,18.13,18.13,0,0,0,.73-2.15c.93-3.33,11.69,7.52,11.69,7.52.09-.18.21-.38.3-.54s.17-.27.18-.26a86.89,86.89,0,0,1-3.35,9.87c-9.67,15.62-81.29,22.71-117.4,16.45-3.77-.65-14.49-2.51-14.51-5,0-1.33,3-2.42,5.07-3.05l-5.94-2.28" transform="translate(-161.69 -253.28)"/><path class="cls-4" d="M365.23,418.93" transform="translate(-161.69 -253.28)"/><path class="cls-1" d="M216.57,435.16s30.74,31.48,81,20a251.5,251.5,0,0,1,40.15-5.77c19-1.36,26,.74,26,.74L378,432.78a85,85,0,0,1-9.63,5.14c-10.3,4.67-19.3,6.24-31.47,7.68-15.55,1.85-24.9,3-38.84,3a252.63,252.63,0,0,1-56.71-6.21A234.29,234.29,0,0,1,216.57,435.16Z" transform="translate(-161.69 -253.28)"/><path class="cls-1" d="M291.81,458.71c0,.09.18.15.45.25.49.19,1,.29,1.55.43,1,.26,2,.51,3,.73a85.83,85.83,0,0,0,24.6,1.92c1.73-.11,3.46-.28,5.18-.5,9.1-1.16,18-3.79,27.2-4.05a8.9,8.9,0,0,0,3.56-.56c2.12-1,3-3.58,4.85-5a161.14,161.14,0,0,0-25.62-.16c-4.59.32-13.19,1.08-25.54,3.15-4.24.71-8.47,1.49-12.69,2.3l-3.16.62-1.52.3a5.9,5.9,0,0,0-1.65.33C291.88,458.57,291.81,458.65,291.81,458.71Z" transform="translate(-161.69 -253.28)"/><path class="cls-5" d="M323,278.51" transform="translate(-161.69 -253.28)"/><path class="cls-5" d="M284.45,293.68" transform="translate(-161.69 -253.28)"/><path class="cls-2" d="M289.17,276.81a23.91,23.91,0,0,1,.94,4.56c.43,4.76-1.11,6.39-.06,8,1.75,2.62,8.81,2.32,10.35-.46.92-1.64-.74-3-.47-7.79a19,19,0,0,1,.74-4.35c.86-2.81,1.87-4.11,3.09-6.67.83-1.72,2.19-3.94,1.83-7.46a9.69,9.69,0,0,0-10.74-9.31c-.81,0-5.58.34-8.36,4.18a10.28,10.28,0,0,0-1.84,5.67C284.44,267.68,287,268.93,289.17,276.81Z" transform="translate(-161.69 -253.28)"/><path class="cls-2" d="M369.77,305.33a24,24,0,0,1-2.56,3.89c-3.06,3.66-5.3,3.73-5.67,5.59-.62,3.09,4.59,7.87,7.64,7,1.81-.52,1.62-2.67,5.17-5.85a18.3,18.3,0,0,1,3.61-2.55c2.59-1.38,4.22-1.58,6.9-2.53,1.8-.64,4.33-1.24,6.57-4a10.48,10.48,0,0,0,2.57-7.41,10.32,10.32,0,0,0-3.59-6.77c-.59-.54-4.19-3.71-8.87-3a10.23,10.23,0,0,0-5.3,2.71C372.88,295.53,373.84,298.25,369.77,305.33Z" transform="translate(-161.69 -253.28)"/><path class="cls-2" d="M212.56,314a23.62,23.62,0,0,1,3.89,2.56c3.67,3.06,3.74,5.31,5.59,5.68,3.09.61,7.87-4.59,7-7.65-.52-1.81-2.67-1.61-5.85-5.17a19.19,19.19,0,0,1-2.55-3.6c-1.38-2.59-1.58-4.23-2.53-6.9-.63-1.81-1.24-4.34-4-6.58a9.71,9.71,0,0,0-14.18,1c-.54.6-3.71,4.19-2.95,8.87a10.32,10.32,0,0,0,2.7,5.31C202.76,310.86,205.48,309.9,212.56,314Z" transform="translate(-161.69 -253.28)"/><path class="cls-2" d="M185.22,394.24a24.7,24.7,0,0,1,4.56-.94c4.76-.42,6.39,1.11,8,.06,2.62-1.75,2.32-8.81-.46-10.35-1.65-.91-3,.74-7.79.48a19,19,0,0,1-4.36-.75c-2.8-.85-4.1-1.86-6.66-3.09-1.73-.82-3.94-2.19-7.47-1.83a10.45,10.45,0,0,0-7,3.42,10.33,10.33,0,0,0-2.25,7.32c0,.81.34,5.59,4.18,8.37a10.34,10.34,0,0,0,5.66,1.84C176.09,399,177.34,396.37,185.22,394.24Z" transform="translate(-161.69 -253.28)"/><path class="cls-2" d="M406.22,381.81a24,24,0,0,1-4.56.95c-4.75.44-6.39-1.09-8,0-2.62,1.76-2.29,8.82.49,10.35,1.64.91,3-.75,7.78-.5a19.34,19.34,0,0,1,4.36.73c2.81.85,4.11,1.86,6.68,3.08,1.73.82,3.95,2.18,7.47,1.8a9.71,9.71,0,0,0,9.27-10.77c0-.8-.36-5.58-4.21-8.35a10.27,10.27,0,0,0-5.67-1.82C415.33,377,414.1,379.65,406.22,381.81Z" transform="translate(-161.69 -253.28)"/><path class="cls-2" d="M263.29,403.05s11.77-36.38,50.68-60.32c0,0,8.16,37.7,34,73.55,0,0-23.29-10-39.79-1.51l2.92-51.2-5.5,52.71-3.1,1.81,3.1-23.22-4.08,18.86S282.79,398,263.29,403.05Z" transform="translate(-161.69 -253.28)"/><path class="cls-2" d="M370.25,421.05c-63.09-1.66-109.07-3.94-115.85-5.6a19.84,19.84,0,0,1-8.08-4.35,19,19,0,0,1-3.66-6.52,1.46,1.46,0,0,1-.06-1.33c.36-.5,1.13-.36,1.68-.12a34.85,34.85,0,0,0,3.29,1.52,3.64,3.64,0,0,0,3.44-.46c1.19-1,1.12-2.89.78-4.43-.4-1.85-1.14-3.78-2.73-4.8s-3.43-.91-5.21-1.06a28,28,0,0,1-10.43-3.34c-1.65-.86-3.26-1.81-4.84-2.78-.34-.2-.61-.49-1-.66s-.68-.17-.58.29c.24,1,.51,2.11.74,3.17,1.66,7.35,3.46,14.69,5.81,21.86.8,2.47,2,6,4,10.57a103.77,103.77,0,0,0,7.07,13.66c6.22,9.36,28.17,7.36,62.9,3.5,45.07-5,61.76-7.58,63.16-15.39A7,7,0,0,0,370.25,421.05Z" transform="translate(-161.69 -253.28)"/><path class="cls-2" d="M394.82,440.18" transform="translate(-161.69 -253.28)"/><path class="cls-1" d="M384,454.17" transform="translate(-161.69 -253.28)"/></svg>