<svg width="624" height="219" viewBox="0 0 624 219" fill="none" xmlns="http://www.w3.org/2000/svg">
<path d="M188.85 69C175.171 61.1021 159.646 56.9622 143.85 57C96.42 57 57.98 93.09 57.98 137.6C58.0045 154.528 63.6067 170.976 73.92 184.4C65.18 186.21 49.3 178.57 49.34 177.29C44.6555 165.944 42.253 153.785 42.27 141.51C42.27 90.57 82.84 49.27 132.9 49.27C153.254 49.2744 172.995 56.2358 188.85 69V69Z" fill="#57BFCC"/>
<path d="M225.38 135.57C226.14 147.95 224.92 158.57 219.84 170.67L208.08 163.85C211.893 147.658 210.393 130.668 203.802 115.394C197.211 100.12 185.88 87.3729 171.483 79.038C157.087 70.7031 140.39 67.2231 123.862 69.1126C107.335 71.0021 91.8539 78.1608 79.71 89.53C90.0357 76.6242 104.025 67.145 119.839 62.3386C135.653 57.5322 152.551 57.6235 168.312 62.6005C184.073 67.5775 197.959 77.2073 208.145 90.224C218.33 103.241 224.339 119.035 225.38 135.53V135.57Z" fill="#3C679D"/>
<path d="M217.22 173.06H217.21" stroke="#231F20" stroke-miterlimit="10"/>
<path d="M192.6 171.39C193.45 171.23 202.11 169.94 202.89 169.55C203.81 169.183 204.649 168.64 205.36 167.95C206.149 166.811 206.838 165.607 207.42 164.35C207.708 163.649 207.952 162.931 208.15 162.2C209.08 158.87 219.84 169.72 219.84 169.72C219.93 169.54 220.05 169.34 220.14 169.18C220.23 169.02 220.31 168.91 220.32 168.92C219.402 172.274 218.283 175.57 216.97 178.79C207.3 194.41 135.68 201.5 99.57 195.24C95.8 194.59 85.08 192.73 85.06 190.24C85.06 188.91 88.06 187.82 90.13 187.19L84.19 184.91" fill="#3C679D"/>
<path d="M54.88 186.88C54.88 186.88 85.62 218.36 135.88 206.88C149.086 203.879 162.513 201.949 176.03 201.11C195.03 199.75 202.03 201.85 202.03 201.85L216.31 184.5C213.213 186.418 209.997 188.135 206.68 189.64C196.38 194.31 187.38 195.88 175.21 197.32C159.66 199.17 150.31 200.32 136.37 200.32C117.293 200.398 98.2682 198.315 79.66 194.11C71.2734 192.157 63.0009 189.744 54.88 186.88V186.88Z" fill="#57BFCC"/>
<path d="M130.12 210.43C130.12 210.52 130.3 210.58 130.57 210.68C131.06 210.87 131.57 210.97 132.12 211.11C133.12 211.37 134.12 211.62 135.12 211.84C143.185 213.662 151.47 214.308 159.72 213.76C161.45 213.65 163.18 213.48 164.9 213.26C174 212.1 182.9 209.47 192.1 209.21C193.312 209.268 194.524 209.077 195.66 208.65C197.78 207.65 198.66 205.07 200.51 203.65C191.988 202.917 183.421 202.863 174.89 203.49C170.3 203.81 161.7 204.57 149.35 206.64C145.11 207.35 140.88 208.13 136.66 208.94L133.5 209.56L131.98 209.86C131.417 209.891 130.861 210.002 130.33 210.19C130.19 210.29 130.12 210.37 130.12 210.43Z" fill="#57BFCC"/>
<path d="M127.48 28.53C127.941 30.0158 128.256 31.543 128.42 33.09C128.85 37.85 127.31 39.48 128.36 41.09C130.11 43.71 137.17 43.41 138.71 40.63C139.63 38.99 137.97 37.63 138.24 32.84C138.317 31.3662 138.565 29.9063 138.98 28.49C139.84 25.68 140.85 24.38 142.07 21.82C142.9 20.1 144.26 17.88 143.9 14.36C143.856 13.0264 143.536 11.7163 142.962 10.5118C142.388 9.30732 141.571 8.23446 140.562 7.36042C139.554 6.48639 138.376 5.83001 137.102 5.43245C135.829 5.03488 134.486 4.90468 133.16 5.05001C132.35 5.05001 127.58 5.39002 124.8 9.23002C123.64 10.8968 123 12.8698 122.96 14.9C122.75 19.4 125.31 20.65 127.48 28.53Z" fill="#3C679D"/>
<path d="M208.08 57.05C207.355 58.4266 206.497 59.7294 205.52 60.94C202.46 64.6 200.22 64.67 199.85 66.53C199.23 69.62 204.44 74.4 207.49 73.53C209.3 73.01 209.11 70.86 212.66 67.68C213.756 66.6873 214.968 65.831 216.27 65.13C218.86 63.75 220.49 63.55 223.17 62.6C224.97 61.96 227.5 61.36 229.74 58.6C231.523 56.5557 232.445 53.8995 232.31 51.19C232.027 48.5562 230.741 46.1323 228.72 44.42C228.13 43.88 224.53 40.71 219.85 41.42C217.854 41.778 216.009 42.7213 214.55 44.13C211.19 47.25 212.15 49.97 208.08 57.05Z" fill="#3C679D"/>
<path d="M244.53 133.53C243.044 133.994 241.517 134.312 239.97 134.48C235.22 134.92 233.58 133.39 231.97 134.48C229.35 136.24 229.68 143.3 232.46 144.83C234.1 145.74 235.46 144.08 240.24 144.33C241.716 144.406 243.179 144.651 244.6 145.06C247.41 145.91 248.71 146.92 251.28 148.14C253.01 148.96 255.23 150.32 258.75 149.94C260.082 149.888 261.389 149.562 262.59 148.982C263.79 148.403 264.859 147.582 265.728 146.572C266.598 145.561 267.25 144.383 267.644 143.109C268.039 141.836 268.167 140.495 268.02 139.17C268.02 138.37 267.66 133.59 263.81 130.82C262.141 129.667 260.168 129.033 258.14 129C253.64 128.72 252.41 131.37 244.53 133.53Z" fill="#3C679D"/>
<path d="M101.6 154.77C101.6 154.77 113.37 118.39 152.28 94.45C152.28 94.45 160.44 132.15 186.28 168C186.28 168 162.99 158 146.49 166.49L149.41 115.29L143.91 168L140.81 169.81L143.91 146.59L139.83 165.45C139.83 165.45 121.1 149.72 101.6 154.77Z" fill="#3C679D"/>
<path d="M208.56 172.77C145.47 171.11 99.49 168.83 92.71 167.17C89.7137 166.371 86.9464 164.881 84.63 162.82C82.9902 160.911 81.7461 158.694 80.97 156.3C80.8553 156.099 80.79 155.873 80.7796 155.642C80.7691 155.411 80.8138 155.181 80.91 154.97C81.27 154.47 82.04 154.61 82.59 154.85C83.6596 155.413 84.7577 155.921 85.88 156.37C86.4464 156.586 87.0576 156.657 87.6583 156.576C88.2591 156.496 88.8302 156.267 89.32 155.91C90.51 154.91 90.44 153.02 90.1 151.48C89.7 149.63 88.96 147.7 87.37 146.68C85.78 145.66 83.94 145.77 82.16 145.62C78.4974 145.204 74.9529 144.069 71.73 142.28C70.08 141.42 68.47 140.47 66.89 139.5C66.55 139.3 66.28 139.01 65.89 138.84C65.5 138.67 65.21 138.67 65.31 139.13C65.55 140.13 65.82 141.24 66.05 142.3C67.71 149.65 69.51 156.99 71.86 164.16C72.66 166.63 73.86 170.16 75.86 174.73C77.8755 179.452 80.2386 184.018 82.93 188.39C89.15 197.75 111.1 195.75 145.83 191.89C190.9 186.89 207.59 184.31 208.99 176.5C209.189 175.241 209.04 173.951 208.56 172.77V172.77Z" fill="#3C679D"/>
<path d="M328.217 55.118C329.54 55.118 331.871 55.307 333.572 56.126V37.415H336.659V36.407H317.444V37.415H321.098V54.992C320.153 55.181 319.145 55.244 318.2 55.244C311.081 55.244 308.876 47.369 308.876 33.572C308.876 18.263 311.522 11.9 317.948 11.9C325.319 11.9 328.091 22.043 329.981 28.595H330.8V10.703H329.981C329.981 10.703 329.351 12.908 327.083 12.908C323.681 12.908 322.484 10.703 316.499 10.703C301.442 10.703 294.89 23.051 294.89 33.509C294.89 38.927 295.961 43.652 298.166 47.432C301.568 53.165 307.364 56.63 316.814 56.63C321.98 56.63 324.374 55.118 328.217 55.118ZM354.922 30.359V25.256C350.701 26.138 346.669 26.453 342.322 26.453H338.542V27.461H343.015V54.425H339.109V55.433H359.395V54.425H354.67V41.888C354.67 31.934 357.127 26.39 362.419 26.39C364.75 26.39 366.136 27.65 366.703 28.406C366.955 28.784 367.081 29.036 367.081 29.351C367.081 29.729 366.829 29.918 366.514 29.918C366.073 29.918 365.884 29.414 365.506 28.973C365.128 28.532 364.183 27.713 362.734 27.713C360.277 27.713 358.576 29.666 358.576 32.186C358.576 35.021 360.781 36.911 363.49 36.911C366.892 36.911 368.845 34.265 368.845 31.241C368.845 27.965 366.136 25.256 362.356 25.256C358.954 25.256 356.497 27.461 355.237 30.359H354.922ZM389.167 45.92C389.167 49.07 388.033 53.48 385.261 53.48C383.371 53.48 381.733 51.59 381.733 47.054C381.733 41.636 385.198 39.872 389.167 40.061V45.92ZM390.364 49.448C390.679 53.102 393.199 56.63 397.672 56.63C403.468 56.63 405.736 52.535 406.429 46.865L405.295 46.739C404.917 50.204 403.846 53.039 402.208 53.039C401.326 53.039 401.074 51.905 401.074 50.456V39.746C401.074 29.855 397.924 25.256 384.316 25.256C376.504 25.256 371.779 28.28 371.779 33.131C371.779 35.966 373.921 38.423 377.386 38.423C379.78 38.423 382.174 36.47 382.174 33.635C382.174 31.367 380.662 29.099 378.142 29.099C375.496 29.099 374.677 31.367 374.677 31.367C374.488 31.745 374.425 32.312 373.858 32.312C373.606 32.312 373.291 32.123 373.291 31.745C373.291 29.162 377.512 26.516 382.363 26.516C389.041 26.516 389.167 32.249 389.167 36.848V38.927C383.371 38.927 369.826 39.494 369.826 48.314C369.826 54.614 375.181 56.63 380.41 56.63C386.962 56.63 388.978 53.354 389.986 49.448H390.364ZM423.093 56.63C431.661 56.63 436.89 45.794 436.89 36.47C436.89 28.784 433.299 25.256 429.267 25.256C425.991 25.256 423.597 27.335 423.597 30.611C423.597 33.446 425.676 35.588 428.385 35.588C430.968 35.588 432.921 33.887 432.921 31.367C432.921 29.477 431.913 28.28 430.401 27.776C429.96 27.65 429.582 27.524 429.582 27.083C429.582 26.705 429.897 26.516 430.212 26.516C430.464 26.516 430.653 26.579 430.905 26.642C433.803 27.461 435.693 31.241 435.693 36.029C435.693 42.833 432.543 51.464 428.196 51.464C423.723 51.464 420.699 43.463 420.699 28.028V25.256C416.478 26.138 412.131 26.453 407.784 26.453H404.004V27.461H408.477V30.926C408.477 44.471 412.257 56.63 423.093 56.63ZM443.366 27.461V54.425H439.46V55.433H459.179V54.425H455.273V25.256C451.052 26.138 447.02 26.453 442.673 26.453H438.893V27.461H443.366ZM443.366 16.688C443.366 19.964 446.012 22.61 449.288 22.61C452.69 22.61 455.273 19.964 455.273 16.688C455.273 13.286 452.69 10.703 449.288 10.703C446.012 10.703 443.366 13.286 443.366 16.688ZM472.327 56.63C478.753 56.63 480.895 52.535 481.588 46.865L480.454 46.739C480.076 50.204 479.005 53.039 477.367 53.039C476.485 53.039 476.233 51.905 476.233 50.456V27.461H482.092V26.453H476.233V15.617H475.414C473.524 23.933 464.641 26.453 461.491 26.453H461.05V27.461H464.326V47.432C464.326 53.921 467.728 56.63 472.327 56.63ZM507.302 25.256C504.278 25.256 501.884 27.398 501.884 30.611C501.884 33.257 503.9 35.462 506.609 35.462C509.066 35.462 511.082 33.761 511.082 31.052C511.082 29.666 510.263 28.469 508.94 27.839C508.499 27.65 508.373 27.524 508.373 27.209C508.373 26.894 508.625 26.642 508.94 26.642C509.57 26.642 510.641 27.335 511.019 27.713C512.783 29.225 513.539 31.682 513.539 34.454C513.539 37.541 513.035 40.313 512.09 42.455C510.326 46.361 508.373 48.629 505.79 48.629C503.27 48.629 498.797 43.841 498.797 30.611C498.797 28.154 498.923 25.256 498.923 25.256C494.702 26.138 490.166 26.453 485.819 26.453H482.039V27.461H486.575V28.469C486.575 42.14 488.654 50.771 499.679 54.362C496.907 56.567 494.324 59.087 494.324 63.245C494.324 67.592 497.411 70.238 501.065 70.238C504.089 70.238 506.546 68.222 506.546 64.757C506.546 61.796 504.215 59.843 501.569 59.843C498.923 59.843 497.285 61.985 497.285 64.064C497.285 65.324 497.978 66.773 499.238 67.592C499.553 67.781 499.742 67.907 499.742 68.222C499.742 68.474 499.553 68.789 499.175 68.789C498.986 68.789 498.671 68.663 498.482 68.537C497.033 67.718 495.458 66.332 495.458 63.119C495.458 56.819 503.774 53.48 508.247 49.637C512.657 45.857 514.673 40.565 514.673 34.643C514.673 29.603 512.405 25.256 507.302 25.256ZM299.552 85.908V127.425H294.89V128.433H316.436V127.425H312.404V106.446H323.429V127.425H319.397V128.433H340.943V127.425H336.281V85.908H340.943V84.9H319.397V85.908H323.429V105.438H312.404V85.908H316.436V84.9H294.89V85.908H299.552ZM361.233 129.63C371.124 129.63 377.865 123.33 377.865 113.943C377.865 104.556 371.124 98.256 361.233 98.256C351.342 98.256 344.601 104.556 344.601 113.943C344.601 123.33 351.342 129.63 361.233 129.63ZM365.139 113.943C365.139 124.779 364.194 128.496 361.233 128.496C358.272 128.496 357.327 124.779 357.327 113.943C357.327 103.107 358.272 99.39 361.233 99.39C364.194 99.39 365.139 103.107 365.139 113.943ZM415.343 127.425V98.256C411.122 99.138 407.342 99.453 402.995 99.453H399.215V100.524H403.688V111.864C403.688 118.29 402.428 126.039 399.215 126.039C396.38 126.039 396.128 121.44 396.128 114.069V98.256C391.907 99.138 388.127 99.453 383.78 99.453H380V100.461H384.473V116.715C384.473 124.338 386.678 129.693 394.301 129.693C398.711 129.693 401.483 127.614 403.121 123.519H403.436V128.433H419.249V127.425H415.343ZM439.706 99.579C445.187 99.579 447.581 102.036 447.581 102.981C447.581 103.359 447.266 103.548 447.014 103.548C446.636 103.548 446.384 103.233 446.069 102.855C445.628 102.351 444.935 101.721 443.423 101.721C440.966 101.721 439.328 103.674 439.328 106.068C439.328 108.966 441.533 110.856 444.116 110.856C447.581 110.856 449.471 108.21 449.471 105.312C449.471 101.406 446.006 98.319 437.879 98.319C426.791 98.319 422.696 102.666 422.696 107.454C422.696 116.085 440.525 118.164 440.525 124.464C440.525 127.362 436.934 128.433 433.595 128.433C427.295 128.433 424.208 125.85 424.208 124.842C424.208 124.527 424.46 124.275 424.712 124.275C425.216 124.275 425.342 124.653 425.783 125.094C426.287 125.598 426.917 126.102 428.24 126.102C430.76 126.102 432.461 124.275 432.461 121.755C432.461 118.857 430.256 117.03 427.673 117.03C424.145 117.03 422.255 119.676 422.255 122.574C422.255 128.433 429.941 129.63 434.225 129.63C445.628 129.63 450.731 125.913 450.731 120.81C450.731 111.297 433.028 110.604 433.028 104.304C433.028 101.154 435.8 99.579 439.706 99.579ZM473.949 128.118C468.531 128.118 467.271 123.456 467.271 116.463H471.429C478.737 116.463 485.289 114.447 485.289 107.832C485.289 100.65 478.107 98.256 470.862 98.256C460.845 98.256 454.482 104.115 454.482 113.943C454.482 124.338 461.034 129.63 472.059 129.63C479.556 129.63 484.218 125.409 485.415 118.668L484.281 118.479L484.155 119.046C483.021 124.59 478.926 128.118 473.949 128.118ZM467.208 110.793C467.208 101.028 468.531 99.39 470.862 99.39C472.563 99.39 473.823 101.091 473.823 107.769C473.823 112.368 472.752 115.329 468.783 115.329H467.208V110.793ZM503.315 125.157C504.764 128.118 507.347 129.63 511.253 129.63C519.695 129.63 523.538 122.385 523.538 113.943C523.538 105.501 520.577 98.256 512.135 98.256C507.725 98.256 504.953 99.705 503.315 103.8H503V83.703C498.779 84.585 494.747 84.9 490.4 84.9H486.62V85.908H491.093V127.425H487.187V128.433H503V125.157H503.315ZM502.748 113.943C502.748 108.21 504.26 101.091 507.536 101.091C510.371 101.091 510.812 105.942 510.812 113.943C510.812 122.007 509.993 127.299 507.536 127.299C505.205 127.299 502.748 123.519 502.748 115.644V113.943ZM543.958 129.63C553.849 129.63 560.59 123.33 560.59 113.943C560.59 104.556 553.849 98.256 543.958 98.256C534.067 98.256 527.326 104.556 527.326 113.943C527.326 123.33 534.067 129.63 543.958 129.63ZM547.864 113.943C547.864 124.779 546.919 128.496 543.958 128.496C540.997 128.496 540.052 124.779 540.052 113.943C540.052 103.107 540.997 99.39 543.958 99.39C546.919 99.39 547.864 103.107 547.864 113.943ZM583.704 118.92C583.704 122.07 582.57 126.48 579.798 126.48C577.908 126.48 576.27 124.59 576.27 120.054C576.27 114.636 579.735 112.872 583.704 113.061V118.92ZM584.901 122.448C585.216 126.102 587.736 129.63 592.209 129.63C598.005 129.63 600.273 125.535 600.966 119.865L599.832 119.739C599.454 123.204 598.383 126.039 596.745 126.039C595.863 126.039 595.611 124.905 595.611 123.456V112.746C595.611 102.855 592.461 98.256 578.853 98.256C571.041 98.256 566.316 101.28 566.316 106.131C566.316 108.966 568.458 111.423 571.923 111.423C574.317 111.423 576.711 109.47 576.711 106.635C576.711 104.367 575.199 102.099 572.679 102.099C570.033 102.099 569.214 104.367 569.214 104.367C569.025 104.745 568.962 105.312 568.395 105.312C568.143 105.312 567.828 105.123 567.828 104.745C567.828 102.162 572.049 99.516 576.9 99.516C583.578 99.516 583.704 105.249 583.704 109.848V111.927C577.908 111.927 564.363 112.494 564.363 121.314C564.363 127.614 569.718 129.63 574.947 129.63C581.499 129.63 583.515 126.354 584.523 122.448H584.901ZM613.031 129.63C619.457 129.63 621.599 125.535 622.292 119.865L621.158 119.739C620.78 123.204 619.709 126.039 618.071 126.039C617.189 126.039 616.937 124.905 616.937 123.456V100.461H622.796V99.453H616.937V88.617H616.118C614.228 96.933 605.345 99.453 602.195 99.453H601.754V100.461H605.03V120.432C605.03 126.921 608.432 129.63 613.031 129.63ZM308.876 180.013C308.876 164.389 311.459 157.9 317.948 157.9C325.319 157.9 328.091 168.043 329.981 174.595H330.8V156.703H329.981C329.981 156.703 329.351 158.908 327.083 158.908C323.681 158.908 322.484 156.703 316.499 156.703C301.442 156.703 294.89 169.051 294.89 179.509C294.89 193.054 301.757 202.63 316.814 202.63C324.5 202.63 331.493 196.897 332.123 186.502H330.8C330.8 192.046 326.264 201.181 317.948 201.181C311.27 201.181 308.876 193.306 308.876 180.013ZM351.046 176.359V171.256C346.825 172.138 342.793 172.453 338.446 172.453H334.666V173.461H339.139V200.425H335.233V201.433H355.519V200.425H350.794V187.888C350.794 177.934 353.251 172.39 358.543 172.39C360.874 172.39 362.26 173.65 362.827 174.406C363.079 174.784 363.205 175.036 363.205 175.351C363.205 175.729 362.953 175.918 362.638 175.918C362.197 175.918 362.008 175.414 361.63 174.973C361.252 174.532 360.307 173.713 358.858 173.713C356.401 173.713 354.7 175.666 354.7 178.186C354.7 181.021 356.905 182.911 359.614 182.911C363.016 182.911 364.969 180.265 364.969 177.241C364.969 173.965 362.26 171.256 358.48 171.256C355.078 171.256 352.621 173.461 351.361 176.359H351.046ZM399.655 200.425V171.256C395.434 172.138 391.654 172.453 387.307 172.453H383.527V173.524H388V184.864C388 191.29 386.74 199.039 383.527 199.039C380.692 199.039 380.44 194.44 380.44 187.069V171.256C376.219 172.138 372.439 172.453 368.092 172.453H364.312V173.461H368.785V189.715C368.785 197.338 370.99 202.693 378.613 202.693C383.023 202.693 385.795 200.614 387.433 196.519H387.748V201.433H403.561V200.425H399.655ZM409.528 173.461V200.425H405.622V201.433H425.341V200.425H421.435V171.256C417.214 172.138 413.182 172.453 408.835 172.453H405.055V173.461H409.528ZM409.528 162.688C409.528 165.964 412.174 168.61 415.45 168.61C418.852 168.61 421.435 165.964 421.435 162.688C421.435 159.286 418.852 156.703 415.45 156.703C412.174 156.703 409.528 159.286 409.528 162.688ZM445.797 172.579C451.278 172.579 453.672 175.036 453.672 175.981C453.672 176.359 453.357 176.548 453.105 176.548C452.727 176.548 452.475 176.233 452.16 175.855C451.719 175.351 451.026 174.721 449.514 174.721C447.057 174.721 445.419 176.674 445.419 179.068C445.419 181.966 447.624 183.856 450.207 183.856C453.672 183.856 455.562 181.21 455.562 178.312C455.562 174.406 452.097 171.319 443.97 171.319C432.882 171.319 428.787 175.666 428.787 180.454C428.787 189.085 446.616 191.164 446.616 197.464C446.616 200.362 443.025 201.433 439.686 201.433C433.386 201.433 430.299 198.85 430.299 197.842C430.299 197.527 430.551 197.275 430.803 197.275C431.307 197.275 431.433 197.653 431.874 198.094C432.378 198.598 433.008 199.102 434.331 199.102C436.851 199.102 438.552 197.275 438.552 194.755C438.552 191.857 436.347 190.03 433.764 190.03C430.236 190.03 428.346 192.676 428.346 195.574C428.346 201.433 436.032 202.63 440.316 202.63C451.719 202.63 456.822 198.913 456.822 193.81C456.822 184.297 439.119 183.604 439.119 177.304C439.119 174.154 441.891 172.579 445.797 172.579ZM480.04 201.118C474.622 201.118 473.362 196.456 473.362 189.463H477.52C484.828 189.463 491.38 187.447 491.38 180.832C491.38 173.65 484.198 171.256 476.953 171.256C466.936 171.256 460.573 177.115 460.573 186.943C460.573 197.338 467.125 202.63 478.15 202.63C485.647 202.63 490.309 198.409 491.506 191.668L490.372 191.479L490.246 192.046C489.112 197.59 485.017 201.118 480.04 201.118ZM473.299 183.793C473.299 174.028 474.622 172.39 476.953 172.39C478.654 172.39 479.914 174.091 479.914 180.769C479.914 185.368 478.843 188.329 474.874 188.329H473.299V183.793Z" fill="#3C679D"/>
<path d="M50.87 65.72C52.2478 66.4431 53.5508 67.3006 54.76 68.28C58.43 71.34 58.5 73.59 60.35 73.96C63.44 74.57 68.22 69.37 67.35 66.31C66.83 64.5 64.68 64.7 61.5 61.14C60.5144 60.042 59.6588 58.8341 58.95 57.54C57.57 54.95 57.37 53.31 56.42 50.64C55.79 48.83 55.18 46.3 52.42 44.06C51.4449 43.1501 50.2928 42.4508 49.0355 42.0057C47.7782 41.5607 46.4427 41.3795 45.1123 41.4733C43.7819 41.5671 42.4851 41.934 41.3027 42.5511C40.1203 43.1682 39.0777 44.0222 38.24 45.06C37.7 45.66 34.53 49.25 35.29 53.93C35.6485 55.9269 36.5876 57.7739 37.99 59.24C41.07 62.58 43.79 61.62 50.87 65.72Z" fill="#3C679D"/>
<path d="M23.53 145.96C25.017 145.504 26.5438 145.189 28.09 145.02C32.85 144.6 34.48 146.13 36.09 145.08C38.71 143.33 38.41 136.27 35.63 134.73C33.98 133.82 32.63 135.47 27.84 135.21C26.3624 135.131 24.8992 134.879 23.48 134.46C20.68 133.61 19.38 132.6 16.82 131.37C15.09 130.55 12.88 129.18 9.35 129.54C6.66306 129.735 4.15526 130.96 2.35 132.96C0.689865 135.022 -0.115534 137.642 0.099998 140.28C0.099998 141.09 0.440006 145.87 4.28001 148.65C5.94557 149.805 7.91379 150.445 9.94001 150.49C14.4 150.72 15.65 148.09 23.53 145.96Z" fill="#3C679D"/>
</svg>
