<svg width="42" height="42" viewBox="0 0 42 42" fill="none" xmlns="http://www.w3.org/2000/svg">
<path d="M38.4475 32.078C38.4475 32.708 38.3075 33.3555 38.01 33.9855C37.7125 34.6155 37.3275 35.2105 36.82 35.7705C35.9625 36.7155 35.0175 37.398 33.95 37.8355C32.9 38.273 31.7625 38.5005 30.5375 38.5005C28.7525 38.5005 26.845 38.0805 24.8325 37.223C22.82 36.3655 20.8075 35.2105 18.8125 33.758C16.8 32.288 14.8925 30.6605 13.0725 28.858C11.27 27.038 9.6425 25.1305 8.19 23.1355C6.755 21.1405 5.6 19.1455 4.76 17.168C3.92 15.173 3.5 13.2655 3.5 11.4455C3.5 10.2555 3.71 9.11799 4.13 8.06799C4.55 7.00049 5.215 6.02049 6.1425 5.14549C7.2625 4.04299 8.4875 3.50049 9.7825 3.50049C10.2725 3.50049 10.7625 3.60549 11.2 3.81549C11.655 4.02549 12.0575 4.34049 12.3725 4.79549L16.4325 10.518C16.7475 10.9555 16.975 11.358 17.1325 11.743C17.29 12.1105 17.3775 12.478 17.3775 12.8105C17.3775 13.2305 17.255 13.6505 17.01 14.053C16.7825 14.4555 16.45 14.8755 16.03 15.2955L14.7 16.678C14.5075 16.8705 14.42 17.098 14.42 17.378C14.42 17.518 14.4375 17.6405 14.4725 17.7805C14.525 17.9205 14.5775 18.0255 14.6125 18.1305C14.9275 18.708 15.47 19.4605 16.24 20.3705C17.0275 21.2805 17.8675 22.208 18.7775 23.1355C19.7225 24.063 20.6325 24.9205 21.56 25.708C22.47 26.478 23.2225 27.003 23.8175 27.318C23.905 27.353 24.01 27.4055 24.1325 27.458C24.2725 27.5105 24.4125 27.528 24.57 27.528C24.8675 27.528 25.095 27.423 25.2875 27.2305L26.6175 25.918C27.055 25.4805 27.475 25.148 27.8775 24.938C28.28 24.693 28.6825 24.5705 29.12 24.5705C29.4525 24.5705 29.8025 24.6405 30.1875 24.798C30.5725 24.9555 30.975 25.183 31.4125 25.4805L37.205 29.593C37.66 29.908 37.975 30.2755 38.1675 30.713C38.3425 31.1505 38.4475 31.588 38.4475 32.078Z" stroke="#206A5D" stroke-width="3" stroke-miterlimit="10"/>
<path d="M32.375 15.7495C32.375 14.6995 31.5525 13.0895 30.3275 11.777C29.2075 10.5695 27.72 9.62451 26.25 9.62451" stroke="#206A5D" stroke-width="3" stroke-linecap="round" stroke-linejoin="round"/>
<path d="M38.5 15.7495C38.5 8.97701 33.0225 3.49951 26.25 3.49951" stroke="#206A5D" stroke-width="3" stroke-linecap="round" stroke-linejoin="round"/>
</svg>
