<svg width="42" height="42" viewBox="0 0 42 42" fill="none" xmlns="http://www.w3.org/2000/svg">
<path d="M38.5 18.375V27.125C38.5 33.25 35 35.875 29.75 35.875H12.25C7 35.875 3.5 33.25 3.5 27.125V14.875C3.5 8.75 7 6.125 12.25 6.125H24.5" stroke="#206A5D" stroke-width="3" stroke-miterlimit="10" stroke-linecap="round" stroke-linejoin="round"/>
<path d="M12.25 15.75L17.7275 20.125C19.53 21.56 22.4875 21.56 24.29 20.125L26.355 18.48" stroke="#206A5D" stroke-width="3" stroke-miterlimit="10" stroke-linecap="round" stroke-linejoin="round"/>
<path d="M34.125 14C36.5412 14 38.5 12.0412 38.5 9.625C38.5 7.20875 36.5412 5.25 34.125 5.25C31.7088 5.25 29.75 7.20875 29.75 9.625C29.75 12.0412 31.7088 14 34.125 14Z" stroke="#206A5D" stroke-width="3" stroke-miterlimit="10" stroke-linecap="round" stroke-linejoin="round"/>
</svg>
